<svg xmlns="http://www.w3.org/2000/svg" style="display:none">
  <symbol id="icon-copy" viewBox="0 0 24 24">
    <path d="M16 1H4a2 2 0 0 0-2 2v14h2V3h12V1Zm3 4H8a2 2 0 0 0-2 2v14a2 2 0 0 0 2 2h11a2 2 0 0 0 2-2V7a2 2 0 0 0-2-2Zm0 16H8V7h11v14Z" fill="currentColor"/>
  </symbol>
  <symbol id="icon-download" viewBox="0 0 24 24">
    <path d="M12 16l4-5h-3V4h-2v7H8l4 5Zm-7 2v2h14v-2H5Z" fill="currentColor"/>
  </symbol>
  <symbol id="icon-trash" viewBox="0 0 24 24">
    <path d="M9 2a1 1 0 0 0-1 1v1H4v2h16V4h-4V3a1 1 0 0 0-1-1H9Zm0 5v12a1 1 0 0 0 1 1h4a1 1 0 0 0 1-1V7H9Zm-3 0v12a3 3 0 0 0 3 3h6a3 3 0 0 0 3-3V7H6Z" fill="currentColor"/>
  </symbol>
</svg>
